<?xml version="1.0" standalone="no"?>
<!DOCTYPE svg PUBLIC "-//W3C//DTD SVG 1.1//EN" "http://www.w3.org/Graphics/SVG/1.1/DTD/svg11.dtd" >
<svg xmlns="http://www.w3.org/2000/svg" xmlns:xlink="http://www.w3.org/1999/xlink" version="1.1">
<metadata>
Created by FontForge 20170924 at Sun Apr 12 04:57:53 1953
 By www-data
Copyright (c) 2019 by Weape Studio. All rights reserved.
</metadata>
<defs>
<font id="Holyfat" horiz-adv-x="324" >
  <font-face 
    font-family="Holyfat"
    font-weight="400"
    font-stretch="normal"
    units-per-em="1300"
    panose-1="0 0 0 0 0 0 0 0 0 0"
    ascent="1040"
    descent="-260"
    x-height="511"
    cap-height="713"
    bbox="-189.143 -175.182 711.6 785"
    underline-thickness="50"
    underline-position="-125"
    unicode-range="U+000D-007E"
  />
<missing-glyph horiz-adv-x="250" 
 />
    <glyph glyph-name=".notdef" horiz-adv-x="250" 
 />
    <glyph glyph-name="uni0000" horiz-adv-x="0" 
 />
    <glyph glyph-name="uni0000" horiz-adv-x="0" 
 />
    <glyph glyph-name="uni000D" unicode="&#xd;" horiz-adv-x="325" 
 />
    <glyph glyph-name="space" unicode=" " horiz-adv-x="209" 
 />
    <glyph glyph-name="A" unicode="A" horiz-adv-x="550" 
d="M459 -1q-5 -18 -18.5 -30.5t-32 -15t-40 7t-42.5 35.5q-29 38 -42 82.5t-16 95.5q-1 26 -0.5 33.5t-10.5 7.5q-14 0 -29 -0.5t-27.5 -1t-21 -1l-8.5 -0.5q-12 0 -18 -15q-19 -60 -29.5 -94.5t-15.5 -54t-7 -28.5t-5 -17q-8 -20 -27 -28t-37.5 -3.5t-30.5 23.5t-7 54
q1 11 4.5 30t7 39t8 39t7.5 30q3 10 2 12.5t-9 7.5q-10 7 -15 17.5t-4.5 21.5t6.5 22t18 18q11 8 18.5 10.5t13 4.5t10 5.5t7.5 11.5q43 107 89.5 182t92 120.5t87.5 62t76 5t57 -50.5t30 -103q6 -49 6 -98.5t-2 -99.5q-1 -37 -4 -80.5t-8.5 -88t-13.5 -87.5t-19 -81z
M297 511q-23 -35 -43.5 -77t-43.5 -93q23 3 38.5 4.5t36.5 3.5q8 1 13.5 19.5t8 44t0.5 53t-10 45.5z" />
    <glyph glyph-name="B" unicode="B" horiz-adv-x="543" 
d="M398 352q2 -3 16 -11t30 -24t28.5 -40.5t11.5 -62.5q-1 -41 -23 -81.5t-58.5 -76t-86 -63.5t-105.5 -44q-29 -8 -54.5 -11.5t-49 -1t-44 13.5t-39.5 33q-32 36 -33 79q-1 13 5 54.5t16 98t24 121t31 122.5t36 103.5t39 63.5q30 27 70.5 41t81 17.5t75 -1t52.5 -14.5
t34 -25.5t28 -33.5t18.5 -37.5t5.5 -39.5q-4 -77 -61 -131q-13 -12 -24.5 -24t-23.5 -25zM172 90q38 11 63.5 38t48.5 59q9 12 14.5 27.5t5.5 29.5t-6 23.5t-21 9.5q-32 0 -63 -6.5t-39 -27.5q-4 -11 -8 -37.5t-6 -53t0 -46t11 -16.5zM199 395q11 0 30 9.5t39.5 24.5t39 33
t27.5 35t2.5 30t-23 17.5t-39 -0.5t-45.5 -23q-12 -13 -22 -34.5t-15.5 -41.5t-4.5 -35t11 -15z" />
    <glyph glyph-name="a" unicode="a" horiz-adv-x="335" 
d="M295 185q-14 -37 -38 -65.5t-52 -48t-58.5 -29.5t-58.5 -10q-21 0 -40 6.5t-34 18.5t-24.5 30t-9.5 40q-1 27 10 59.5t33.5 61t56.5 47.5t80 19q8 0 9.5 1t1.5 9q0 14 -0.5 27t-3.5 26q-3 17 -13 24t-26 7q-5 0 -12.5 -3t-14.5 -7.5t-13 -11t-9 -12.5q-5 -12 -14 -17
t-18 -4.5t-16 6.5t-7 16q0 31 12.5 56.5t33 43.5t46.5 27.5t53 9.5q41 0 68.5 -15t44.5 -38.5t25.5 -53t10.5 -58.5q0 -3 -1 -22t-3.5 -44t-7 -51.5t-11.5 -44.5zM157 229q-16 0 -34.5 -12.5t-30 -27t-11.5 -27t20 -12.5q12 0 21.5 9.5t17 22.5t12 26.5t5.5 20.5z" />
    <glyph glyph-name="b" unicode="b" horiz-adv-x="368" 
d="M212 693q31 9 50 0t18 -32q0 -5 -10.5 -24.5t-25 -46.5t-29.5 -57.5t-23.5 -57t-7 -46t19.5 -23.5q61 -10 99.5 -48t38.5 -104q0 -46 -20.5 -86t-53.5 -68t-75 -39t-86 2q-43 13 -67.5 45t-33.5 76t-5.5 96.5t17 106t35 105t47.5 93.5t55 70.5t57 37.5zM182 159
q11 0 22.5 3.5t22 12.5t18.5 24t11 37q3 23 -7.5 37.5t-26.5 19.5t-32 0t-25 -20q-8 -15 -11 -35t-0.5 -37.5t9.5 -29.5t19 -12z" />
    <glyph glyph-name="C" unicode="C" horiz-adv-x="442" 
d="M349 692q34 0 64 -9.5t53 -30.5q29 -25 34.5 -55t-5.5 -55q-8 -19 -19.5 -25t-24.5 -6t-25 3.5t-22 4.5q-55 5 -99.5 -45t-71.5 -140q-13 -45 -16.5 -93t5.5 -87.5t30 -63.5t56 -21q14 1 31 3.5t32 2t26 -6.5t15 -22t-7 -35t-33 -35.5t-53 -27.5t-69 -11
q-73 0 -122.5 32.5t-77.5 85.5t-36 121t3 138.5t38.5 138.5t70 121t99 85.5t124.5 32.5z" />
    <glyph glyph-name="D" unicode="D" horiz-adv-x="515" 
d="M453 190q-25 -52 -66 -97.5t-91 -78.5t-104.5 -51.5t-106.5 -16.5q-40 0 -59 32t-24.5 81t0 108t15 113.5t19.5 96.5t13 58q3 15 12.5 43t20 57t20.5 54t16 33q24 36 55.5 53t69.5 17q50 0 91.5 -24t72 -64t50 -92.5t26 -108t-0.5 -111t-29 -102.5zM176 172q12 0 34 28.5
t43 70t36.5 88t15.5 81.5t-5.5 59t-14 39t-18.5 23t-19 11q-14 6 -23 -2.5t-14.5 -24t-8 -34.5t-4.5 -36q-2 -14 -5.5 -42t-7 -61.5t-7 -69t-5.5 -64.5t-1.5 -47.5t4.5 -18.5z" />
    <glyph glyph-name="E" unicode="E" horiz-adv-x="362" 
d="M220 361q11 1 16.5 2t11.5 1.5t16.5 0.5h29.5q20 0 28 -15t6 -33t-14 -33.5t-32 -15.5q-28 0 -43.5 1t-34.5 1q-10 0 -16.5 -29t-10.5 -71q-1 -14 10 -19.5t29 -7t39.5 0t39.5 2.5q19 0 28 -22t7.5 -49t-14 -50t-37.5 -25t-41 -4t-31 -3.5t-34 -2.5t-50 -1t-52.5 6.5
t-35.5 17.5t-22 26t-12 32q-8 30 -6 83.5t10.5 117.5t24 131t34.5 124.5t41.5 98t45.5 51.5q22 10 44.5 13t47 2.5t52 -2.5t59.5 -2q51 0 71.5 -22t18 -48.5t-22.5 -48.5t-50 -22h-62t-36 -3t-18.5 -11.5t-9.5 -26.5q-8 -35 -12.5 -68t-12.5 -77z" />
    <glyph glyph-name="c" unicode="c" horiz-adv-x="307" 
d="M272 493q12 -10 20.5 -26.5t10 -33t-5.5 -28.5t-25 -12q-34 0 -57 -15t-35.5 -37t-16.5 -48t-1.5 -48t11.5 -37t22 -15q14 0 31.5 6t29.5 6q18 0 20.5 -19.5t-9 -42.5t-37 -42.5t-64.5 -19.5q-17 0 -42.5 3.5t-51.5 20.5q-43 29 -61 72.5t-16 91.5t21.5 96t52.5 85
q24 28 52.5 43t56.5 19t53 -1t41 -18z" />
    <glyph glyph-name="d" unicode="d" horiz-adv-x="408" 
d="M259 463v21.5t-1 31.5t-4 46.5t-9 65.5q-4 23 5.5 40.5t25.5 24.5t36 0t37.5 -32.5t29.5 -72t12 -119.5q-1 -41 -9 -91.5t-22 -100.5t-34.5 -94.5t-46.5 -73.5q-43 -48 -92.5 -62.5t-91.5 3t-69.5 66.5t-27.5 127q0 32 13.5 74.5t38.5 80.5t60.5 64t78.5 26q23 0 43 -8.5
t27 -16.5zM155 172q10 0 21.5 14t22.5 35t20 46t12.5 46t0.5 35t-16 14q-12 0 -24.5 -14t-22.5 -35t-17 -46t-10 -46t0 -35t13 -14z" />
    <glyph glyph-name="e" unicode="e" horiz-adv-x="351" 
d="M337 380q0 -50 -26 -81t-60 -46t-66.5 -14.5t-45.5 13.5q-2 -6 -3 -23t3 -35t15.5 -32t33.5 -14q12 0 26 11t28.5 22.5t27.5 18t22 -2.5t4 -32t-22 -46.5t-44.5 -42t-63.5 -18.5q-65 0 -104.5 33.5t-55.5 84t-10.5 109t30.5 109t69 84t104 33.5q66 0 102 -34.5t36 -96.5z
M166 327q2 -6 6 -10q7 -11 26 -11t34 14t22 31.5t3.5 31.5t-21.5 14q-17 0 -29.5 -10.5t-21.5 -24.5q-11 -15 -19 -35z" />
    <glyph glyph-name="f" unicode="f" horiz-adv-x="379" 
d="M247 327h35.5h22t13.5 -0.5t11 -2.5q18 -5 26 -18.5t6.5 -27.5t-12 -25t-29.5 -11q-31 -1 -47 -0.5t-23.5 -0.5t-9 -5t-2.5 -14q-2 -17 -2.5 -38.5t-1.5 -43.5t-2 -43.5t-4 -38.5q-4 -27 -18.5 -44t-34 -23t-41 0t-41 25t-33 51.5t-17.5 80.5q-1 14 -1 26.5t-0.5 22.5
t-3.5 15.5t-9 5.5q-20 -2 -38.5 1.5t-23.5 23.5q-3 14 1.5 23.5t14 16t23 10.5t26.5 7q11 2 13 4t4 13q5 25 9.5 46t10.5 41.5t13.5 40.5t17.5 44q16 36 33.5 68.5t40 59t51.5 45t68 26.5q36 8 61.5 -2t37 -28.5t8.5 -39.5t-24 -36q-13 -9 -31.5 -29.5t-37 -52.5t-34.5 -75
t-26 -98z" />
    <glyph glyph-name="F" unicode="F" horiz-adv-x="360" 
d="M225 379q26 0 47.5 -2t36.5 -9t23.5 -19t8.5 -32q0 -24 -19 -40.5t-56 -16.5q-21 0 -36.5 0.5t-17.5 -15.5q-2 -23 -5 -59t-8.5 -73.5t-13.5 -71.5t-20 -54q-20 -33 -48 -42.5t-53.5 2.5t-44 45.5t-19.5 85.5q-1 32 4.5 84.5t14.5 112.5t19.5 122t21 113t20 85t14.5 39
q8 8 15 22.5t24 25.5q15 11 31.5 11t30.5 -11q7 -5 13.5 -6.5t15.5 -0.5q20 2 44.5 3.5t50 1t49.5 -3.5t43 -10q34 -13 45.5 -40t5.5 -53.5t-27.5 -45t-53.5 -15.5q-63 8 -95.5 13.5t-44.5 7.5q-9 1 -10 -9q0 -9 -1.5 -29.5t-2.5 -43t-2 -43t0 -29.5z" />
    <glyph glyph-name="G" unicode="G" horiz-adv-x="450" 
d="M211 167q-12 -3 -22 -6t-20 -3q-47 -2 -81.5 22.5t-54 66t-23.5 95t8.5 109t43 108t80.5 91.5q28 22 67.5 32t67.5 10q32 0 52.5 -8.5t32.5 -21t16 -27.5t2.5 -27.5t-8 -21t-16.5 -8.5q-40 0 -74 -22t-59 -54.5t-40.5 -70.5t-20 -70.5t3.5 -54.5t30 -22q31 0 54 25t39 57
t24.5 63t10.5 43q4 22 20 27.5t33.5 -6.5t31.5 -42t14 -78q0 -32 -5 -79.5t-18 -99.5t-34 -104t-54 -93.5t-78 -67.5t-105 -26q-54 0 -89.5 16.5t-55.5 40.5t-26.5 53t-3.5 53t14 40.5t27 16.5q10 0 18.5 -5t10.5 -19q2 -13 10.5 -21t19.5 -13t23 -7t22 -2q27 0 48 15.5
t35.5 35t21.5 37.5t7 23z" />
    <glyph glyph-name="H" unicode="H" horiz-adv-x="596" 
d="M359 295h-52q-11 0 -12 -10q-9 -55 -16 -97.5t-13 -76.5t-11 -61.5t-11 -51.5q-10 -41 -33.5 -63.5t-51 -29t-55.5 3t-46 33.5q-19 24 -24 71t-2.5 100t10 102t14.5 77q1 5 -0.5 6.5t-6 2.5t-12 2t-18.5 5q-19 6 -29 19t-10 29q1 27 23.5 39.5t54.5 14.5q10 1 15 1t8 4.5
t5.5 17t8 38t15 66.5t26.5 103q5 17 12.5 35.5t21.5 31.5q12 11 28.5 16t33 2t31.5 -14.5t26 -32.5q12 -22 17.5 -51.5t7.5 -61t1 -63t-2 -58.5q0 -5 -0.5 -10t7.5 -5q23 1 35.5 1t19 1t8 3t2.5 6q4 18 11 53.5t16 73.5t20 72t23 49q16 20 37 19.5t36 -20.5q12 -15 19 -41.5
t10 -58.5t2.5 -67t-2 -68t-4 -61.5t-4.5 -46.5q-8 -78 -10.5 -125t-3 -76t-0.5 -46.5t-4 -37.5q-2 -14 -8.5 -29t-18 -27t-28 -19.5t-39.5 -7.5q-22 0 -39.5 10.5t-29 27t-18 35.5t-6.5 36q0 20 2 53.5t5 67t5.5 59.5t2.5 30z" />
    <glyph glyph-name="g" unicode="g" horiz-adv-x="357" 
d="M184 167q-12 -7 -26.5 -16t-46.5 -9q-36 0 -58 16t-34 38t-15.5 44.5t-3.5 34.5q1 17 5 41t13 50.5t23.5 52t35.5 46t50 33.5t67 13t63 -15.5t39.5 -40t21 -56t7.5 -63t-1.5 -61t-5.5 -50.5q-3 -18 -12.5 -48.5t-26.5 -65t-41 -70t-56 -64t-72 -46.5t-88 -18
q-35 0 -57 12t-33.5 29.5t-14.5 38t-0.5 38t9.5 29.5t15 12q12 0 20 -5.5t18 -12.5t25 -12.5t42 -5.5t51.5 18.5t43 42t30.5 44.5t13 26zM195 407q-11 0 -24 -12t-24 -30t-19 -39.5t-10.5 -39.5t3 -30t21.5 -12q23 0 41 25.5t26.5 56t6 56t-20.5 25.5z" />
    <glyph glyph-name="h" unicode="h" horiz-adv-x="406" 
d="M221 409q3 1 8.5 5.5t14.5 10.5t23 12t34 9q18 3 33.5 -3.5t27 -19t18 -29t6.5 -33.5q0 -36 -10 -73t-23 -73t-23.5 -69t-10.5 -61q0 -17 -10.5 -27.5t-25 -13.5t-30.5 3.5t-28 22.5q-17 23 -18.5 52t5.5 58t19 57t21 50t12 35t-7 13q-16 0 -30 -18t-26 -45t-22 -59.5
t-18 -62.5l-14 -52.5t-9 -29.5q-12 -27 -29.5 -40t-35.5 -15t-34.5 6t-27.5 24q-21 29 -22.5 83t9 119.5t29.5 135t38.5 129t37.5 102.5t26 55q13 19 31.5 24.5t35.5 -2.5t30 -29.5t14 -57.5q2 -37 -1.5 -74t-10.5 -73q-2 -12 -3.5 -23t-3.5 -23z" />
    <glyph glyph-name="I" unicode="I" horiz-adv-x="329" 
d="M123 552q-11 2 -26.5 4t-30.5 8t-26 17.5t-13 32.5q-3 24 9 43.5t35 28.5q11 4 33.5 9.5t50 10t55.5 7t50 0.5q40 -2 60.5 -22t23 -45t-11.5 -48.5t-43 -34.5q-14 -5 -16 -8.5t-1 -18.5q2 -35 -1.5 -96.5t-10 -128.5t-14.5 -128t-16 -96q-3 -13 -1.5 -15.5t13.5 -4.5
q32 -6 45 -27.5t10.5 -46t-18.5 -44.5t-42 -23q-19 -2 -49 -4t-61 -1t-60 6.5t-47 18.5q-13 9 -18.5 23t-1.5 27.5t17 26t37 18.5q8 2 8 4t-2 13t-3.5 37t2.5 76t15.5 129.5t36.5 198.5q2 13 5.5 26t6.5 27z" />
    <glyph glyph-name="J" unicode="J" horiz-adv-x="426" 
d="M355 125q-15 -42 -35.5 -79.5t-46.5 -65t-57 -43.5t-68 -16q-47 0 -78.5 13.5t-51 34.5t-29.5 46t-13 48t-2 40.5t3 23.5q9 29 29 47.5t48 18.5q14 0 22.5 -12.5t16 -27.5t15.5 -27.5t21 -12.5q12 0 25 22.5t25.5 59.5t24 84t21 95.5t16.5 94.5t10 81q1 11 -1 12.5
t-13 0.5q-36 -2 -61.5 -9t-54.5 -17q-20 -7 -35.5 4t-16.5 30t17.5 42.5t65.5 42.5q15 6 37.5 13.5t46.5 13t47 8t39 -0.5q27 -5 43 -18.5t25 -34t12.5 -45.5t4.5 -53q4 -107 -4.5 -208.5t-47.5 -205.5z" />
    <glyph glyph-name="K" unicode="K" horiz-adv-x="441" 
d="M247 527q7 0 10.5 3t7.5 6q40 29 68.5 54t49.5 46t36 36.5t28 24.5q21 15 39.5 14t31 -12.5t17 -30t-3.5 -39.5q-5 -13 -11.5 -23.5t-14.5 -21.5q-20 -28 -52.5 -61t-67 -66.5t-67.5 -64.5t-55 -54q-7 -7 -7 -9t7 -8q17 -15 40.5 -38.5t48 -49.5t46 -51t33.5 -45
q11 -17 18.5 -35t12.5 -38q8 -26 1 -50t-26 -41q-19 -18 -40 -19t-42.5 9t-43 29t-41 41.5t-38 46.5t-33.5 44q-1 -4 -8.5 -28.5t-22 -52t-37 -50t-52.5 -22.5q-31 0 -50 16.5t-28 43.5t-10 60.5t2 67.5t8.5 65t9.5 53q3 13 10 44t16.5 72t21 86t22 85.5t20 71t15.5 41.5
q9 17 22 26t27 10.5t28 -5t24 -20.5q13 -17 18 -37.5t8 -42.5q3 -20 3.5 -40t0.5 -41z" />
    <glyph glyph-name="i" unicode="i" horiz-adv-x="219" 
d="M178 296q-1 -40 -2 -81.5t-18 -80.5q-15 -35 -39.5 -48.5t-48.5 -7.5t-43 30.5t-24 63.5q-2 19 -2 47t3 59.5t8.5 65t12.5 63t16.5 52.5t19.5 35q18 20 44 19.5t44 -20.5q13 -14 19 -37.5t8.5 -51t2 -56t-0.5 -52.5zM118 554q-15 0 -28.5 7.5t-22.5 19.5t-13.5 27
t-1.5 31q5 26 23 45.5t44 14.5q5 -1 11 -1.5t11 -2.5q40 -9 49 -51q3 -16 -1.5 -32t-14.5 -29t-24.5 -21t-31.5 -8z" />
    <glyph glyph-name="j" unicode="j" horiz-adv-x="232" 
d="M137 20q-37 -66 -81 -100t-86.5 -45t-78.5 -3t-57 26.5t-23 43.5t24 48q12 11 21 12.5t21 5.5t30.5 15t48.5 41q20 20 33.5 49.5t21.5 64.5t12 72t6.5 72t3.5 64t4 48q5 37 22.5 57t39 21.5t42 -16t32.5 -54.5q17 -54 20 -114.5t-3.5 -118t-20.5 -107.5t-32 -82zM154 579
q-19 -16 -43 -15.5t-42 12t-24 33t12 47.5q5 7 10.5 12.5l10.5 10.5q20 19 46 16.5t42 -23.5q15 -19 13.5 -46t-25.5 -47z" />
    <glyph glyph-name="k" unicode="k" horiz-adv-x="405" 
d="M195 146q-6 -22 -16 -41.5t-23 -38.5q-16 -24 -36.5 -34t-40 -8t-36 14.5t-25.5 33.5q-21 53 -15.5 113t23.5 133q9 38 23.5 92t32.5 110.5t39 108t43 82.5q26 37 55 37.5t45 -25.5q8 -13 10.5 -33t2 -42t-3 -44t-5.5 -39q-4 -31 -8.5 -59.5t-8 -51.5t-6 -38.5
t-2.5 -20.5q4 0 14.5 11.5t24.5 25.5t30.5 27.5t32.5 17.5q15 4 27 0.5t18.5 -12.5t6 -23t-10.5 -31q-6 -11 -14.5 -20t-21 -21t-29 -28t-39.5 -42q-7 -8 -7 -10t6 -10q8 -9 23.5 -32.5t33 -51.5t33.5 -57t24 -49q8 -21 2.5 -33.5t-17 -18.5t-26 -7t-24.5 1q-17 4 -39.5 22
t-43 38.5t-35.5 37t-17 16.5z" />
    <glyph glyph-name="L" unicode="L" horiz-adv-x="392" 
d="M227 112q16 4 27.5 7t22.5 5.5t24 5.5t33 6q44 8 64.5 -12.5t13.5 -49.5q-4 -18 -35.5 -39.5t-79.5 -40t-107 -30.5t-118 -12q-43 0 -62.5 26.5t-25 64.5t-1.5 80t9 73q3 21 16 65.5t32.5 99.5t43.5 113.5t49.5 106.5t50.5 79t46 31q32 0 47 -26.5t20.5 -62.5t3.5 -73.5
t-5 -58.5q-3 -28 -13 -66.5t-21 -79t-22 -79.5t-17.5 -69.5t-6.5 -48t11 -15.5z" />
    <glyph glyph-name="M" unicode="M" horiz-adv-x="697" 
d="M627 701q26 0 40.5 -16.5t21.5 -42t8 -57.5t-1.5 -62t-6.5 -55t-7 -38q-25 -102 -40 -187.5t-31.5 -147t-39 -96t-63.5 -34.5q-21 0 -41 8t-35 26t-23.5 46.5t-5.5 68.5q3 54 14 106.5t28 105.5q-7 -7 -14 -23.5t-15.5 -35t-18.5 -37.5t-23 -31q-24 -24 -51 -22t-44 30
q-11 18 -20 42.5t-14 47.5q-5 -6 -11 -32t-14.5 -61.5t-19 -76t-25 -74t-33 -56t-41.5 -22.5q-36 0 -54.5 32t-26 82.5t-6 113.5t6.5 125t24 129.5t48 124t67 93t81 36.5q44 0 69 -27t38.5 -68.5t19 -92.5t9.5 -99q43 78 87 139q19 26 39.5 50.5t41.5 44t42 31.5t40 12z" />
    <glyph glyph-name="l" unicode="l" horiz-adv-x="230" 
d="M-3 193q0 20 3.5 51t9.5 66.5t13.5 72t14.5 66.5q5 21 20 60t35 78t44 67.5t48 28.5t34.5 -13.5t13 -33.5t-0.5 -43.5t-6 -43.5q-18 -102 -27 -174.5t-14 -125.5t-8 -90.5t-8 -68.5q-6 -38 -24.5 -56t-39.5 -21.5t-41.5 5.5t-31.5 26q-22 34 -28.5 71.5t-6.5 77.5z" />
    <glyph glyph-name="N" unicode="N" horiz-adv-x="603" 
d="M133 -98q-15 -17 -33.5 -23.5t-36.5 -1t-32.5 23t-20.5 47.5q-5 23 -5.5 46.5t-0.5 47.5q1 29 7.5 80.5t16.5 113.5t23.5 129t27 127t27 107t23.5 69q8 16 20.5 27t28.5 11q35 0 58.5 -17t39 -42.5t25.5 -55t18 -53.5q20 -61 34.5 -112.5t24.5 -89.5q12 -44 20 -80
q9 86 17 160l8 64t7.5 60.5t7 51t6.5 34.5q9 36 27 56.5t38.5 24.5t38 -7t24.5 -38q4 -15 3.5 -51.5t-4 -85.5t-9.5 -104.5t-13 -108t-14 -96t-13 -68.5q-21 -92 -59.5 -135t-80.5 -43q-36 0 -62 20t-44.5 50t-30 66.5t-19 70t-11 59t-5.5 34.5l-3.5 -24.5t-9.5 -62
t-13.5 -82.5t-16 -86t-17.5 -72t-17 -41z" />
    <glyph glyph-name="m" unicode="m" horiz-adv-x="600" 
d="M368 396q12 17 22.5 32t22 29t26 26.5t34.5 24.5q17 10 34 11t31 -9t24 -32.5t13 -59.5q2 -28 -0.5 -62.5t-8 -70.5t-13 -70t-15.5 -61q-7 -23 -11 -40.5t-7.5 -31.5t-9 -24.5t-15.5 -19.5q-14 -12 -30 -16t-31.5 -1t-28 13.5t-20.5 27.5q-17 38 -11 80q9 56 17 83.5
t14 44t10.5 31.5t8.5 45q-28 -41 -44 -74t-25.5 -58.5t-16 -45t-17.5 -33.5q-15 -21 -38 -23t-40 17q-18 19 -22.5 48t-1.5 61.5t10 64.5t13 56q-7 -9 -10.5 -17.5t-7.5 -16.5q-28 -64 -44 -117t-29.5 -91.5t-29 -59.5t-42.5 -23q-44 -2 -67 33t-24 84q0 38 10.5 88t26 98
t33.5 89t33 61q13 16 27.5 22t27.5 4t23 -11.5t14 -24.5q5 -20 4 -39t-3 -38q7 6 10 12.5t7 12.5q26 43 52.5 61.5t50 15t40 -28t21.5 -66.5q1 -2 1 -4.5t2 -6.5z" />
    <glyph glyph-name="n" unicode="n" horiz-adv-x="457" 
d="M164 361q14 43 37 76q20 29 51.5 52.5t75.5 23.5q45 0 71.5 -34t37 -85.5t6.5 -111.5t-18.5 -111.5t-39 -85.5t-55.5 -34q-37 0 -51.5 27t-15 67.5t8 88t17.5 88t14 67.5t-4 27q-10 0 -25 -22.5t-32 -57.5t-35 -77t-33.5 -80.5t-27.5 -68t-18 -40.5q-10 -19 -26.5 -28
t-35 -7t-35.5 14.5t-29 36t-15.5 58t6.5 80.5q4 19 11.5 56t17.5 76.5t22 74.5t24 50q20 24 46.5 22t41.5 -29q5 -8 6.5 -26t1.5 -38q1 -23 0 -49z" />
    <glyph glyph-name="o" unicode="o" horiz-adv-x="400" 
d="M89 474q34 36 82 40q12 1 19.5 -0.5t13 -3.5t11.5 -3.5t16 -0.5q30 3 53.5 -8t40.5 -30.5t28.5 -46t16.5 -54.5q8 -43 1.5 -83t-22.5 -80q-23 -56 -57.5 -91.5t-73.5 -51.5t-78 -12.5t-70 24.5t-50.5 60.5t-19.5 95.5q0 59 19 125t70 120zM217 371q-11 -19 -19 -38.5
t-14 -39.5q-11 -38 -3 -76q2 -6 2.5 -12.5t6.5 -8.5q7 -2 12 3l10 10q19 23 26.5 47t7 46t-8.5 40.5t-20 28.5z" />
    <glyph glyph-name="O" unicode="O" horiz-adv-x="524" 
d="M234 -66q-55 0 -104.5 27t-83.5 75t-48 114t3 145q24 110 66.5 184.5t87.5 121.5t83 69.5t53 28.5q43 17 74.5 7t47 -32t14.5 -48t-23 -42q-60 -48 -101 -102.5t-66 -107.5t-34 -101.5t-6 -85.5t18 -59t39 -22q33 0 54 25.5t33.5 64.5t17.5 85t6.5 87t0 71t-2.5 36
q-4 35 14.5 53t43 18t47.5 -18t28 -54q1 -7 2 -49.5t-4 -102.5t-19 -128t-43.5 -126t-77.5 -96t-120 -38z" />
    <glyph glyph-name="P" unicode="P" horiz-adv-x="536" 
d="M217 210q-8 2 -11.5 -7t-7 -32t-8.5 -62.5t-17 -98.5q-5 -27 -17.5 -48.5t-30 -33.5t-39 -12t-44.5 16q-20 13 -30.5 38.5t-14.5 55.5t-4 61.5t2 57.5q1 26 7 70.5t15.5 97.5t21.5 110t26 108t28.5 91t29.5 59q14 19 27.5 25t25.5 7t22.5 -1t17.5 0q56 14 109.5 6.5
t104.5 -34.5q52 -29 79.5 -78t34.5 -113q3 -34 -8.5 -76.5t-36 -82.5t-61.5 -71.5t-84 -45.5q-18 -5 -40 -7.5t-41.5 -3t-34.5 1t-21 2.5zM234 399q26 5 51 18.5t47 30t38 33t23 27.5q16 24 7 49.5t-33 37.5q-23 12 -46.5 19.5t-49.5 5.5q-10 -1 -11.5 -2.5t-2.5 -12.5
q-1 -23 -3.5 -44.5t-5 -45.5t-6 -52t-8.5 -64z" />
    <glyph glyph-name="p" unicode="p" horiz-adv-x="419" 
d="M137 148q-4 -33 -8 -71.5t-7.5 -76.5t-5.5 -72t-3 -58t-22 -36t-46 -7.5t-46.5 28t-22.5 68.5q0 27 1 69.5t4 87.5t8.5 86.5t13.5 66.5q4 11 10.5 34t17 52.5t24.5 61t33.5 57.5t43.5 44t53 20q7 0 13 1.5t13 2.5q65 12 107.5 -9.5t64.5 -61t23 -89.5t-18.5 -95.5
t-59.5 -79t-99 -40.5q-26 -3 -45.5 0t-46.5 17zM164 311q36 0 60 15t34 32.5t6 32.5t-25 15q-11 0 -21 -2.5t-19 -10.5q-9 -9 -16.5 -22.5t-13 -27t-7 -23t1.5 -9.5z" />
    <glyph glyph-name="q" unicode="q" horiz-adv-x="408" 
d="M158 173q-8 -6 -14.5 -11t-13.5 -9q-33 -22 -65 -16.5t-54 36.5q-19 26 -22 61t6 72.5t28 74t43.5 65t53 46t56.5 17.5q24 0 37.5 -8.5t21 -19.5t10.5 -20t5 -11q16 38 28 68t24.5 50t27.5 29.5t36 4.5q34 -7 37 -50t-12.5 -117.5t-44 -177.5t-57.5 -229q26 5 40.5 5.5
t24.5 -2.5q21 -6 25 -28t-9 -50.5t-42.5 -59t-75.5 -53.5q-7 -4 -18 -9t-23.5 -6t-26.5 3.5t-29 19.5t-22 31t-9 37.5t0.5 50t7.5 66.5q2 15 6 38t8 44.5t7.5 38t4.5 19.5zM100 211q10 0 22.5 14t25 35t23.5 46t16.5 46t4 35t-12.5 14q-9 0 -22.5 -14t-27 -35t-24.5 -46
t-17 -46t-4 -35t16 -14z" />
    <glyph glyph-name="Q" unicode="Q" horiz-adv-x="529" 
d="M359 -2q-15 -13 -34 -25q-81 -51 -167 -15q-52 22 -84 60.5t-47.5 87.5t-16.5 105.5t9.5 115t30 117t45.5 110.5q31 63 69.5 99t76 49t69.5 5.5t49 -33.5q4 -5 12 -7q51 -6 82 -33.5t46 -74.5q9 -28 13 -72t-0.5 -98.5t-18.5 -117.5t-41 -129q-7 -17 1 -35
q5 -10 11.5 -27.5t13 -37t11 -37.5t4.5 -30q-2 -26 -21.5 -38t-42.5 0q-5 3 -9 6t-9.5 8.5l-14 14t-22.5 21.5q-3 3 -7 5.5t-8 5.5zM311 560q-9 -4 -22.5 -32t-26.5 -69t-24.5 -90t-16.5 -95.5t-1.5 -84.5t19.5 -57q5 -6 9.5 -4.5t9.5 3.5q5 3 4 6.5t-3 7.5q-6 17 -10 28.5
t-6.5 20t-3.5 16t-1 15.5q2 32 24.5 46.5t50.5 1.5q6 -3 11.5 -6.5t11.5 -7.5q5 10 10.5 29t10 43t7 51.5t1.5 54.5q-2 36 -13 68t-41 55z" />
    <glyph glyph-name="R" unicode="R" horiz-adv-x="476" 
d="M219 143q-6 -41 -17.5 -83.5t-29.5 -74t-45 -46.5t-65 -2q-10 3 -23.5 15.5t-26 31.5t-22 43.5t-10.5 52.5q-3 49 4 115.5t22.5 137t37 138.5t48 120t56 81t59.5 23q3 -1 15.5 3.5t31.5 7.5t44 1t53 -16q27 -13 49.5 -35t38 -49t23 -57.5t4.5 -62.5q-3 -31 -16.5 -59.5
t-33 -50.5t-43.5 -37t-48 -21q-8 -2 -9 -4.5t2 -11.5q6 -20 19.5 -47t29 -54.5t32 -54t29.5 -45.5q8 -10 20.5 -23t22 -27.5t12 -29.5t-10.5 -30q-17 -20 -35.5 -22.5t-35.5 -2.5q-31 0 -56 13t-45 32.5t-34.5 42t-24.5 42t-15.5 33t-6.5 13.5zM253 442q4 0 18.5 7.5
t30 20.5t28 31t12.5 39t-6.5 36.5t-16.5 26t-21 15.5t-20 5q-3 0 -7.5 -13.5t-9 -33.5t-8 -43.5t-5 -43.5t-1 -33.5t5.5 -13.5z" />
    <glyph glyph-name="r" unicode="r" horiz-adv-x="383" 
d="M216 475q39 27 73 33.5t59 -1.5t39.5 -26t13.5 -40q0 -13 -6.5 -24.5t-16.5 -18.5t-23 -9t-26 3q-20 8 -34 1.5t-25 -18.5q-29 -39 -42.5 -70.5t-20.5 -64.5t-12.5 -72.5t-19.5 -93.5q-7 -29 -28.5 -45t-49.5 -14q-15 1 -33.5 10t-35.5 25.5t-29 41t-13 57.5q-2 36 7 95
t25 121t36.5 115.5t41.5 77.5q15 17 33.5 23.5t35.5 1t30 -24t17 -51.5q2 -8 2.5 -15.5t1.5 -16.5z" />
    <glyph glyph-name="s" unicode="s" horiz-adv-x="319" 
d="M-32 66q0 26 8 49.5t22.5 41t35.5 27.5t48 10q12 0 19 -10t3 -26t-9.5 -32t-8 -27.5t6.5 -11.5q10 0 20.5 10.5t17.5 25.5t8.5 32.5t-6.5 31.5q-5 10 -20.5 25t-33 35t-33 44t-22 50.5t-0.5 55t33 57.5q34 37 74 52.5t75 14t60.5 -18t31.5 -42.5q5 -18 -4 -31.5
t-29 -17.5q-7 -1 -17.5 -5.5t-20.5 -13t-17.5 -20.5t-7.5 -29t12.5 -33.5t28.5 -37t30.5 -47.5t18.5 -66q3 -34 -7.5 -65.5t-30 -56.5t-46 -42.5t-55.5 -23.5q-30 -7 -61.5 -5.5t-58 13t-44.5 33t-21 54.5z" />
    <glyph glyph-name="S" unicode="S" horiz-adv-x="527" 
d="M0 147q6 42 20 79t33 64t42 41t47 10q20 -3 30.5 -16.5t15.5 -31.5t5 -37t-2 -32q-4 -29 3 -47t21 -25.5t31.5 -6t33.5 10t28.5 23.5t15.5 34q3 21 -9.5 40t-33.5 37t-47.5 36.5t-50.5 39.5q-31 28 -47 64.5t-7 96.5q5 30 22 66t46 64.5t71 45t97 7.5q28 -4 54 -16
t44 -28.5t25 -35.5t-3 -39q-7 -13 -20 -17.5t-29 -5.5t-33.5 -0.5t-32 -1.5t-24.5 -9t-13 -23q-3 -23 10 -44.5t34.5 -45.5t46.5 -53t44.5 -67t28.5 -87.5t-1 -113.5q-4 -27 -26.5 -66t-61.5 -73t-95 -54t-128 -9q-52 8 -88.5 34t-59 59t-31.5 69t-6 64z" />
    <glyph glyph-name="T" unicode="T" horiz-adv-x="381" 
d="M165 521q-8 1 -21 1q-22 2 -65 3q-23 1 -44 15.5t-21 44.5q0 27 28.5 46.5t71.5 32.5t94.5 19t96.5 6q23 0 50.5 -0.5t53 -2.5t46 -6.5t29.5 -13.5q26 -25 25.5 -51.5t-20.5 -45.5q-10 -8 -20.5 -14.5t-24.5 -11t-33.5 -6.5t-48.5 -2q-13 0 -14 -2t-1 -14q0 -14 -0.5 -47
t-2.5 -77t-4.5 -94.5t-6 -99.5t-7 -92t-7.5 -72q-4 -32 -21.5 -54.5t-40.5 -31.5t-48.5 -3t-47.5 31.5t-36 71t-14 115.5q0 45 8.5 105t18.5 116q12 66 27 134z" />
    <glyph glyph-name="t" unicode="t" horiz-adv-x="289" 
d="M36 420h-9q-9 0 -33 -3q-18 -3 -28 8t-11.5 26t6.5 29.5t25 18.5q35 9 59 18.5t29 23.5q19 55 37 88t35 49t31.5 17.5t24.5 -6.5t15 -23t3 -32q-3 -34 -7 -52t-5.5 -26.5t0.5 -10t11 -2.5q23 -2 47.5 -8t39.5 -25q15 -18 16 -38t-8 -36.5t-26 -26t-39 -5.5q-21 3 -33 5.5
t-18 3.5t-8 -1t-2 -8q-3 -30 -5.5 -73t-3 -88t2.5 -87.5t10 -72.5q8 -31 -9 -54.5t-46 -24.5q-32 0 -57 18t-43 43q-14 18 -19 40t-5 45q0 32 3.5 77.5t8.5 88.5q5 50 11 104z" />
    <glyph glyph-name="u" unicode="u" horiz-adv-x="464" 
d="M283 186q-8 -18 -18 -38q-9 -16 -21 -35.5t-28 -38.5q-14 -17 -32.5 -27t-40.5 -10q-30 0 -53.5 12t-41.5 29.5t-29.5 38.5t-16.5 39q-15 51 -11 103.5t17.5 98t32.5 80t35 50.5q39 39 88 21q26 -10 38.5 -30t14.5 -46q1 -15 -2.5 -39.5t-8.5 -53t-10.5 -57.5t-8.5 -52.5
t-1.5 -38.5t9.5 -15q9 0 20 19.5t22 49.5t21.5 65.5t19 67t14 54.5t5.5 28q0 14 9 26t21.5 19.5t28 8t28.5 -8.5q25 -17 32 -45q4 -15 10 -51.5t10 -82t4 -94t-8 -89t-26.5 -66.5t-51.5 -26q-29 0 -44 21t-21 46q-7 29 -6 67z" />
    <glyph glyph-name="U" unicode="U" horiz-adv-x="478" 
d="M225 138q18 0 36.5 34.5t35.5 87t32.5 113.5t26.5 114t17.5 88.5t6.5 37.5q-1 28 11.5 44.5t29.5 20t34 -7t24 -36.5q5 -19 4 -61.5t-7.5 -95.5t-17.5 -110.5t-26 -105.5t-34 -105t-47 -107t-66 -83t-92 -33q-40 0 -73 19.5t-57 53.5t-38.5 79t-19.5 95q-8 82 1 167
t29.5 157t50.5 123.5t64 66.5q17 8 33.5 6.5t30.5 -10.5t24.5 -24.5t14.5 -36.5q5 -22 1 -67.5t-11 -100t-15.5 -112t-13 -104.5t-3 -77t13.5 -30z" />
    <glyph glyph-name="V" unicode="V" horiz-adv-x="545" 
d="M324 231q18 65 36 126q15 52 31 107.5t27 93.5q14 44 33 67t57 23q24 0 36 -13t17 -30.5t4.5 -33.5t-2.5 -22q-22 -82 -40.5 -166t-37 -158t-37.5 -133.5t-41 -93.5q-20 -31 -47.5 -47t-58 -17.5t-62 11.5t-60.5 41q-42 43 -76 112t-55.5 148.5t-29 160t1.5 146t37 106.5
t77 41q17 0 35.5 -7.5t34.5 -24.5q13 -14 25 -40t22.5 -59.5t20 -71t17.5 -75.5q19 -88 35 -191z" />
    <glyph glyph-name="v" unicode="v" horiz-adv-x="336" 
d="M309 538q24 0 33.5 -15.5t10 -40t-6 -55t-15.5 -60t-18 -54.5t-14 -39q-7 -21 -17.5 -47t-22.5 -52.5t-25 -50t-27 -38.5q-30 -34 -68.5 -28.5t-72 44t-54.5 106.5t-15 159q1 15 6 41.5t16 52t28.5 44t44.5 18.5q31 0 54.5 -29t26.5 -103q1 -10 1 -36.5v-54.5v-70
q20 86 43 154q9 29 20 56.5t23 49.5t24.5 35t24.5 13z" />
    <glyph glyph-name="W" unicode="W" horiz-adv-x="720" 
d="M537 237q15 33 27.5 86t24 109.5t22 108.5t21.5 84q5 13 13.5 20.5t18 9t20 -3.5t17.5 -17q7 -11 9 -29.5t1.5 -39t-2.5 -40t-3 -31.5q-5 -58 -14.5 -128.5t-25 -139.5t-37.5 -129t-51.5 -97t-67 -44.5t-84.5 28.5q-30 24 -48 58t-28 66.5t-14.5 57.5t-7.5 31
q-10 -22 -23.5 -53t-29.5 -62.5t-33.5 -59.5t-35.5 -44q-29 -26 -64.5 -22t-62.5 39q-25 32 -40 78t-22.5 99.5t-7.5 111.5t5.5 113t15 104t22.5 84q15 43 41 62.5t53 14t48.5 -35.5t27.5 -86q3 -26 3.5 -63t0 -77t-1.5 -79.5t-2.5 -70.5t-2 -51t0.5 -21q3 2 12.5 31t24 71
t33 90t38.5 89t40.5 68.5t38.5 27.5q25 0 43.5 -20.5t32 -52.5t23 -70t15.5 -73.5t10 -63t6 -38.5z" />
    <glyph glyph-name="X" unicode="X" horiz-adv-x="491" 
d="M284 461q20 25 45.5 54t52 55.5t52 48.5t45.5 33q21 11 34.5 10.5t21.5 -8t9.5 -19.5t-1.5 -24q-5 -16 -24.5 -45.5t-46.5 -65.5t-57 -75.5t-56 -76.5q-6 -9 -5.5 -15t10 -25t29.5 -58t54 -114q7 -15 16 -41.5t10 -52t-11.5 -44.5t-48.5 -19q-35 0 -62.5 11.5t-49.5 30.5
t-41 43.5t-37 49.5q-1 -1 -8.5 -12t-18 -27.5t-22.5 -36.5t-23 -37.5t-19 -30.5t-10 -17q-7 -10 -19 -15.5t-24.5 -3.5t-22 13t-12 33.5t5 58.5t29.5 88q14 31 28 53t24.5 38t15.5 27.5t0 21.5q-5 13 -17 39.5t-26.5 61t-30 72.5t-27.5 73.5t-18.5 64.5t-4.5 44
q5 35 29.5 51.5t62.5 3.5q15 -5 33 -22.5t36.5 -41t36 -49.5t31.5 -48.5t22.5 -38t9.5 -16.5z" />
    <glyph glyph-name="Y" unicode="Y" horiz-adv-x="500" 
d="M380 656q17 26 41.5 33.5t47 -1t37.5 -31t12 -57.5q-2 -26 -7 -50.5t-9 -50.5q-1 -9 -3.5 -37.5t-8 -68.5t-13.5 -88.5t-21.5 -99t-33 -99t-46.5 -88t-62 -66.5t-80 -35q-59 -10 -103.5 3t-73.5 38t-41.5 57.5t-8.5 61.5q4 25 23.5 32.5t39.5 -10.5q6 -5 11 -13
t14.5 -14.5t25 -10t42.5 1.5q33 6 57.5 22.5t41 37.5t25.5 41.5t10 33.5q-15 -12 -32 -20t-34 -15q-33 -13 -65.5 -10.5t-60.5 17.5t-48.5 42t-28.5 61q-15 85 -8 161.5t25 135t42.5 94t46.5 39.5q19 3 36.5 -2.5t30.5 -19.5t19.5 -36t3.5 -52q-3 -24 -9 -60t-11.5 -75.5
t-9.5 -78t-3 -68.5t8.5 -48t24.5 -15q27 5 47 40t34.5 81.5t25 94.5t18.5 79q8 30 11.5 48t5.5 29.5t5 19t9 16.5z" />
    <glyph glyph-name="Z" unicode="Z" horiz-adv-x="499" 
d="M269 529q-10 10 -37 4t-58.5 -17.5t-61.5 -23t-46 -11.5t-29.5 8t-18.5 21.5t0.5 31.5t25.5 37q30 29 69.5 49.5t83 32t89.5 12t89 -11.5q48 -13 75.5 -42.5t37 -68t2.5 -84t-27 -90.5q-22 -51 -50 -93.5t-52 -75t-40.5 -53t-16.5 -26.5q23 -1 46.5 -1.5t44.5 -3.5
t38 -11t26 -25q6 -11 3.5 -25t-15.5 -27t-37 -21.5t-61 -8.5q-25 0 -46 -0.5t-45 -5.5t-54 -14.5t-74 -27.5q-43 -18 -79.5 -13t-59 27t-28 58.5t12.5 81.5q17 43 47 89t65 90.5t70 84.5t62 72.5t41.5 54t7.5 27.5z" />
    <glyph glyph-name="w" unicode="w" horiz-adv-x="509" 
d="M249 198q-5 -4 -15 -27.5t-25.5 -52t-37 -54t-49.5 -34.5q-24 -8 -47.5 -4.5t-42 18.5t-30.5 41.5t-13 65.5q-1 20 1.5 50t7 64.5t12 70.5t17 68.5t21.5 58.5t26 40q15 15 32.5 18.5t34 -2.5t29.5 -22t19 -42q8 -35 4 -77t-11.5 -81t-14 -71t-5.5 -47q2 0 9.5 13.5
t18 35.5t22 48t22 50t18.5 42t11 24q8 14 21 20t26 2.5t24 -17t15 -37.5q4 -21 8 -44t8 -42q4 -22 9 -43q5 65 10 119q2 23 4.5 45.5t4 41.5t3 32.5t2.5 17.5q4 17 18.5 23t29.5 -4q21 -14 30.5 -41.5t14.5 -73.5q3 -24 2 -58t-6.5 -71t-15.5 -73.5t-26.5 -65.5t-39 -47
t-52.5 -18t-49 20.5t-30.5 46t-17 47.5t-7.5 26z" />
    <glyph glyph-name="x" unicode="x" horiz-adv-x="348" 
d="M137 414q4 3 12.5 15.5t19.5 28.5t25.5 33t31 27.5t35 12.5t38.5 -11q17 -11 23 -26t5 -32.5t-8 -35.5t-18 -35q-26 -43 -40 -63.5t-19 -29.5t-3 -11t7 -9q11 -13 24 -31t25 -37.5t20.5 -39.5t9.5 -37q2 -30 -15.5 -51.5t-46.5 -26.5q-22 -4 -40 5t-33 24t-27.5 33
t-21.5 32q-13 -21 -25.5 -41.5t-26 -36.5t-29.5 -24.5t-37 -7.5q-17 1 -31.5 10t-23 24.5t-8 36t12.5 45.5q27 54 45 81.5t27 41t10.5 19t-4.5 16.5l-15.5 31t-18.5 40t-16.5 40.5t-10.5 32.5q-3 14 1 25t12.5 18t20.5 7.5t25 -7.5q18 -10 35 -29t53 -57z" />
    <glyph glyph-name="y" unicode="y" horiz-adv-x="415" 
d="M343 526q22 0 35 -11t19 -28.5t7 -40.5t-1.5 -46.5t-6 -46.5t-6.5 -41q-7 -41 -16.5 -87.5t-24 -92.5t-35.5 -88.5t-51 -74.5t-70 -51.5t-92 -19.5q-24 0 -46.5 6t-40.5 17.5t-30.5 27t-16.5 34.5q-3 18 -0.5 34.5t10.5 28.5t20.5 17.5t27.5 -0.5q11 -4 19.5 -12.5
t18.5 -16t24 -11.5t36 0q32 7 50.5 23.5t29.5 34.5q13 21 18 45q-6 -4 -14 -8q-7 -3 -17.5 -6.5t-24.5 -6.5q-38 -8 -76.5 9.5t-61.5 57.5q-18 32 -23 69t0.5 75.5t20 75t34.5 67.5q23 35 48.5 45.5t47 5.5t35.5 -22.5t13 -39.5q0 -10 -5 -32.5t-11.5 -51t-12 -58t-8 -54
t0.5 -39t15 -12.5q17 3 30 28.5t24.5 61.5t22.5 77.5t23.5 76.5t27 58t33.5 23z" />
    <glyph glyph-name="z" unicode="z" horiz-adv-x="331" 
d="M60 380q-33 -23 -60 -5q-10 7 -5 19.5t20 27.5t39 31t51.5 28.5t58 21t58.5 8.5q27 0 49 -10.5t35.5 -28.5t17.5 -41.5t-5 -49.5q-12 -35 -37 -69t-50.5 -62.5t-45.5 -48t-22 -24.5q8 -1 19.5 0t26.5 1.5t34 -0.5t42 -6q33 -8 50.5 -24.5t21 -33.5t-7.5 -31t-37 -17
q-18 -2 -33 -3t-39 -1t-63.5 0.5t-105.5 0.5q-21 0 -40.5 5t-33.5 14.5t-20.5 24t-2.5 32.5q4 19 22 45.5t42.5 56t51.5 59.5t49.5 54.5t36.5 41.5t12 21q-3 6 -21 3t-39.5 -10t-41 -15.5t-27.5 -14.5z" />
    <glyph glyph-name="one" unicode="1" 
d="M178 660q14 15 32.5 18.5t36 -3t30.5 -24t16 -44.5q3 -39 -6 -87.5t-24 -111.5t-31.5 -144t-27.5 -186q-4 -38 -18 -76q-12 -30 -37.5 -41.5t-54 -4t-53 33.5t-33.5 72q-10 47 -3.5 106.5t22.5 123t38.5 125t44.5 112.5t40.5 86t27.5 45z" />
    <glyph glyph-name="two" unicode="2" horiz-adv-x="534" 
d="M226 104q27 2 39.5 3.5t23 2t24 0.5h43.5q26 0 44 -14t25.5 -32t2 -35.5t-27.5 -25.5q-26 -9 -44.5 -11t-41 -3t-54 -4t-84.5 -15q-32 -8 -66.5 -11t-68.5 6q-25 7 -40.5 21t-22.5 32.5t-6 38.5t9 39q8 21 33 51.5t58.5 66t72.5 73.5t75 74t66.5 67.5t46.5 54.5
q10 14 14.5 21.5t5 11.5t-2.5 6t-8 4q-12 5 -28.5 6t-36 -2.5t-40 -11.5t-39.5 -23q-4 -3 -7 -6t-7 -5q-20 -15 -41 -12t-33 19t-10 42t28 56q20 22 46 38.5t54.5 27.5t57 16t51.5 4q51 -3 88.5 -23t60 -50t30 -67t-0.5 -74q-10 -44 -36.5 -86t-65 -84t-85 -86t-96.5 -92
q-6 -4 -6 -9z" />
    <glyph glyph-name="three" unicode="3" horiz-adv-x="503" 
d="M274 564q-15 1 -35.5 0t-41 -5.5t-37 -12.5t-22.5 -20q-5 -10 -17 -11t-23 5t-18.5 18.5t-3.5 30.5q5 27 30 48.5t60.5 36t77.5 20t82 -0.5q61 -10 86.5 -48.5t14.5 -87.5q-8 -35 -28 -62.5t-41 -53.5q3 -3 21.5 -12t40.5 -26.5t41.5 -44.5t22.5 -66q2 -35 -5 -68.5
t-26 -64.5q-47 -77 -103.5 -120.5t-114.5 -56t-111.5 5t-94.5 61.5q-19 21 -28 47t-6.5 50t17.5 41.5t43 21.5q33 5 54.5 -0.5t39.5 -10t37.5 -3.5t47.5 17q26 15 56 37.5t43 50.5q4 9 -5.5 15.5t-27 9.5t-39.5 1.5t-43 -8.5q-33 -11 -59 1t-37.5 36.5t-4.5 55.5t40 56
q17 13 35 29.5t34 32t28.5 29.5t18.5 21q0 2 1 5z" />
    <glyph glyph-name="four" unicode="4" horiz-adv-x="491" 
d="M250 202q-36 -6 -56.5 -10t-33 -6t-21 -3.5t-20.5 -3.5q-40 -6 -68 5.5t-43.5 34t-18 52t8.5 59.5q28 78 65.5 148.5t90.5 134.5q17 20 36 42t41 35q21 11 43 8t36 -19.5t16.5 -44.5t-17.5 -67q-17 -32 -34.5 -61.5t-37.5 -58.5q-15 -22 -27.5 -43t-25.5 -43t-28 -46
t-34 -53q15 -4 53 3t90 9q8 1 10 5t4 9q10 30 24.5 70t30.5 79.5t33.5 72.5t33.5 47q21 19 44 12.5t32 -33.5q5 -14 5 -34.5t-2.5 -42t-6 -41.5t-6.5 -34q-4 -20 -11.5 -53t-16.5 -71t-20 -79t-22.5 -78.5t-23 -68t-22.5 -48.5q-16 -26 -36.5 -41t-50.5 -7q-34 9 -44.5 36
t-8.5 63t13 75.5t21 72.5q1 3 2 7t3 10z" />
    <glyph glyph-name="five" unicode="5" horiz-adv-x="509" 
d="M39 35q-28 29 -34.5 60t3.5 55t33 36t54 4q9 -2 21 -6.5t28 -7t36.5 -1t45.5 10.5q18 6 31.5 21t18 31.5t-2 32t-27.5 22.5q-18 7 -37.5 11t-39.5 2t-37.5 6.5t-29.5 23.5t-16 35.5t3 42.5q6 18 16 41.5t22.5 48t25.5 49t24 43.5q21 35 43.5 50t49 15.5t57.5 -10.5
t69 -27q25 -11 36 -29.5t7 -36.5t-22 -31t-52 -12q-25 1 -38 3t-19.5 2t-8 -2t-4.5 -9q-8 -20 -16 -41t-16 -41q-5 -10 6 -13q9 -3 17.5 -6t17.5 -6q50 -17 82 -51.5t46.5 -77.5t11 -89.5t-25 -88t-61 -73t-98.5 -43.5q-59 -13 -118.5 0t-101.5 56z" />
    <glyph glyph-name="six" unicode="6" horiz-adv-x="463" 
d="M289 372q38 -2 68.5 -15.5t47.5 -48.5q13 -26 18.5 -53.5t1.5 -56.5q-13 -95 -47.5 -150t-79 -77.5t-93 -16.5t-90.5 33.5t-71.5 72t-34.5 99.5q-6 65 6.5 130t40 125.5t69 114.5t93.5 99q18 16 40.5 28.5t46.5 19t48 5.5t45 -12q21 -10 32.5 -27t14 -35.5t-5 -38
t-24.5 -34.5q-23 -20 -40 -37.5t-31 -35.5t-27 -38.5t-28 -46.5v-4zM343 192q1 10 -2 22.5t-10 22t-16 15t-20 0.5q-38 -17 -57 -43.5t-14 -75.5q3 -30 21 -44t39 -8.5t39 32.5t20 79z" />
    <glyph glyph-name="seven" unicode="7" horiz-adv-x="394" 
d="M98 317q-6 1 -14 2.5t-16 5t-13.5 10.5t-5.5 19q-1 22 18 30t42 5q17 -3 26.5 3.5t17.5 21.5q14 27 30 53t30 53q8 14 6.5 17t-17.5 8q-25 7 -49.5 7t-50.5 -2q-14 -1 -27 -3t-24 -1.5t-20.5 6t-16.5 19.5q-7 16 0 34.5t34 30.5q16 7 37 12.5t44 9t45 5t39 0.5
q33 -1 63 -10.5t52.5 -26.5t36 -42t14.5 -58q1 -40 -11 -70t-27 -65q18 0 29.5 -14t10 -30t-19 -28.5t-56.5 -9.5q-7 1 -10 -5t-13 -25q-28 -55 -57 -107.5t-57 -107.5q-29 -59 -64 -79t-63 -12t-43.5 39.5t-6.5 74.5q4 18 10 34.5t17 39.5t28 55.5t43 82.5q2 4 4.5 8
t4.5 10z" />
    <glyph glyph-name="eight" unicode="8" horiz-adv-x="442" 
d="M119 320q-46 54 -63 110t14 126q19 42 50.5 70.5t69 43.5t76 16.5t70.5 -11.5t53.5 -40t24.5 -69q7 -114 -71 -197q-14 -15 -19.5 -18.5t0.5 -11.5q55 -59 77.5 -116.5t18.5 -106t-31 -85.5t-71 -56q-110 -48 -223 -12q-35 11 -58 34.5t-33.5 54t-7.5 65.5t20 69
q16 32 32.5 54.5t31 38t25 25.5t14.5 16zM171 58q20 0 38 10.5t30.5 25t19 30.5t1.5 27q-4 9 -12 23t-17 27.5t-19 23t-19 9.5q-7 0 -17.5 -13t-20.5 -32.5t-17.5 -42.5t-7.5 -42.5t9 -32.5t32 -13zM266 399q12 14 23.5 27t20.5 29t14 36t3 48q-1 23 -15.5 31t-34 5.5
t-39.5 -14.5t-32.5 -29.5t-13 -38.5t18.5 -42q25 -27 55 -52z" />
    <glyph glyph-name="nine" unicode="9" horiz-adv-x="468" 
d="M228 312q-17 -8 -32 -12.5t-32 -4.5q-33 0 -62 12t-51 33.5t-35.5 50.5t-13.5 61q-1 31 10 65.5t30.5 66t46 57.5t56.5 40q57 27 105.5 21t86 -35.5t62.5 -78.5t33.5 -109.5t-0.5 -127t-38 -131.5q-16 -36 -33.5 -67.5t-40 -59t-51.5 -52.5t-68 -47q-13 -8 -34 -11.5
t-43 -4.5t-42.5 1t-31.5 5q-22 7 -33.5 19.5t-13.5 25.5t5 24t22 16q62 21 96 43.5t52 48t25.5 54t16.5 60.5q2 8 4.5 17t3.5 20zM206 570q-17 0 -31 -12t-24 -29t-15.5 -35t-6.5 -30q-1 -8 0 -17t5 -17t12.5 -13.5t22.5 -5.5q13 0 26 12t23.5 29.5t17.5 38t7 38t-8.5 29.5
t-28.5 12z" />
    <glyph glyph-name="zero" unicode="0" horiz-adv-x="493" 
d="M266 10q-56 -24 -105.5 -10t-86.5 54t-59 101t-23.5 132t20 146t71.5 144q35 48 77 72.5t83 29t77.5 -10.5t59.5 -48q8 -11 16.5 -21t21.5 -17q15 -9 23 -23t13 -31q24 -78 16.5 -160.5t-36 -155t-73 -127t-95.5 -75.5zM211 131q31 13 56.5 51.5t39.5 89t13.5 106
t-21.5 103.5q-4 9 -4.5 16.5t-1.5 12t-3 6t-9 0.5q-13 -2 -25 -10.5t-22.5 -20.5t-19 -25.5t-14.5 -25.5q-27 -54 -38.5 -112.5t-8.5 -104t18 -71t40 -15.5z" />
    <glyph glyph-name="period" unicode="." horiz-adv-x="246" 
d="M187 100q0 -35 -24 -59t-58 -25q-35 0 -59.5 24.5t-24.5 59.5q1 35 25 58.5t58 23.5q35 0 59 -24t24 -58z" />
    <glyph glyph-name="comma" unicode="," horiz-adv-x="216" 
d="M79 33q-19 7 -31 22t-16.5 32.5t-1.5 35.5t14 32t29.5 21.5t45.5 4.5q33 -4 46.5 -25.5t13 -51t-13 -62t-31.5 -57.5t-42 -38t-46 -4q-10 4 -15 11t-5.5 14.5t3.5 14t12 10.5q12 5 22 16.5t16 23.5z" />
    <glyph glyph-name="quotesingle" unicode="'" horiz-adv-x="216" 
d="M159 591q-10 -52 -20.5 -80t-39.5 -30q-12 -1 -22 4.5t-16.5 15.5t-9 22t-0.5 23q14 65 36 126q8 20 21 32t32 7q14 -4 20.5 -14.5t8.5 -25.5q2 -16 -2.5 -40z" />
    <glyph glyph-name="quotedbl" unicode="&#x22;" horiz-adv-x="274" 
d="M235 517q-4 -15 -7.5 -28t-9.5 -23t-15 -16.5t-24 -6.5q-13 0 -23 5t-16.5 14t-9 20.5t0.5 22.5q11 41 22.5 80t30.5 77q8 17 20 30t30 8q11 -2 16 -9.5t7 -18.5q3 -16 1 -36.5t-5.5 -42t-8.5 -41.5t-9 -35zM119 536q-9 -28 -29 -37.5t-39 -4t-31 23t-4 42.5
q7 22 15.5 42.5t16.5 37t15 28t11 15.5q7 9 15.5 14.5t20.5 2.5q13 -4 17.5 -13t6.5 -20q4 -33 -0.5 -66t-14.5 -65z" />
    <glyph glyph-name="question" unicode="?" horiz-adv-x="443" 
d="M267 223q-16 -27 -28.5 -47.5t-25.5 -34t-28 -20.5t-36 -7q-28 0 -43.5 16.5t-21.5 39.5t-5 47t5 38q16 56 47 97t63 76.5t57.5 68t30.5 71.5q3 18 -2.5 32.5t-18.5 27.5q-15 14 -47 5t-65.5 -29.5t-60 -46.5t-30.5 -46q-5 -23 -24 -28.5t-37 6.5q-17 11 -26 33.5
t-4 45.5t23 51t47 55t67.5 49t84.5 33q45 11 83.5 1t67.5 -32.5t48 -53t23 -60.5q8 -49 -2 -95t-31 -92.5t-50.5 -95.5t-60.5 -105zM223 0q0 -35 -24.5 -59.5t-59.5 -24.5t-59.5 25t-24.5 60q1 34 25.5 58t58.5 24q18 0 33 -6.5t26.5 -17.5t18 -26.5t6.5 -32.5z" />
    <glyph glyph-name="exclam" unicode="!" horiz-adv-x="247" 
d="M198 285q-4 -28 -5.5 -52t-7 -43.5t-16.5 -34t-34 -23.5q-22 -9 -45 -4t-41 20t-27 38t-5 50q21 120 37 217.5t33 165t38 102t53 28.5q31 -7 42 -39q7 -19 8.5 -52.5t0 -74t-5.5 -85t-8.5 -85.5t-9 -75t-7.5 -53zM96 -85q-36 0 -61.5 24.5t-27.5 60.5q-1 35 22 59.5
t59 24.5q17 0 32.5 -6.5t27.5 -18t19.5 -26.5t8.5 -33q2 -35 -21 -60t-59 -25z" />
    <glyph glyph-name="equal" unicode="=" horiz-adv-x="501" 
d="M83 425q-19 7 -28.5 21t-9 30t11.5 29.5t32 19.5q14 4 40 8t57.5 7.5t66 5.5t66 2.5t57 -1t39.5 -5.5q27 -8 40 -29.5t9 -44t-27 -40.5t-67 -19q-20 0 -60.5 -0.5t-84.5 1t-83.5 5t-58.5 10.5zM32 214q-13 6 -19.5 16t-7 21.5t5.5 22.5t18 18q10 6 36.5 11t61 10t73.5 9
t74.5 7t63.5 5t40 3q15 1 28 -4t22.5 -14.5t15.5 -22t6 -26.5q0 -29 -20.5 -49t-49.5 -20q-41 0 -94.5 -0.5t-104.5 0.5t-92 3.5t-57 9.5z" />
    <glyph glyph-name="plus" unicode="+" horiz-adv-x="471" 
d="M312 324q-8 0 -11.5 -0.5t-6 -8t-6 -25t-11.5 -52.5q-5 -20 -14.5 -37t-22.5 -32q-19 -21 -42 -19t-39 25q-13 20 -19 37t-7.5 34t0.5 35.5t5 39.5q1 8 -7 10t-21.5 2t-30.5 0.5t-33 4.5q-14 3 -22 11t-9 17t5.5 17.5t21.5 13.5q29 9 49 12.5t34 5t23 2t14 4.5q6 4 7 12
t4 16q10 29 17.5 51.5t14 40t13.5 31.5t16 26q16 22 38.5 19.5t33.5 -26.5q8 -17 9 -42t-1 -44q-3 -34 -5 -51t-2 -24t3.5 -7.5t11.5 -0.5q10 -1 25 -3t30.5 -6t29 -10t20.5 -14q7 -9 8.5 -19t-3 -19t-15.5 -15.5t-29 -7.5q-14 -2 -28.5 -3.5t-47.5 -0.5z" />
    <glyph glyph-name="hyphen" unicode="-" horiz-adv-x="395" 
d="M115 314q-16 -1 -35 -0.5t-34.5 5t-26 14t-10.5 26.5q1 21 15.5 29.5t34.5 11.5q78 12 126 18.5t78.5 6.5t49.5 -6t39 -20q9 -6 13.5 -15t3.5 -18.5t-7.5 -17.5t-18.5 -13q-23 -9 -38 -12t-33 -3.5t-45 -1t-73 -4.5q-10 -1 -19.5 -0.5t-19.5 0.5z" />
    <glyph glyph-name="numbersign" unicode="#" horiz-adv-x="665" 
d="M516 487h34h21.5t14 -0.5t11.5 -2.5q21 -6 26 -23.5t-9 -33.5q-14 -14 -36.5 -20t-64.5 -11q-6 -2 -9 -4t-5 -9q-2 -19 -5.5 -37.5t-7.5 -38.5q7 -2 12.5 -2h11.5q20 0 32.5 -6t17.5 -14.5t3 -18.5t-11 -18q-7 -7 -16.5 -11.5t-19.5 -7.5t-19 -4.5t-15 -1.5
q-11 0 -13 -13q-4 -26 -7 -43t-5 -29t-4.5 -20.5t-6.5 -17.5q-13 -32 -35 -43t-42.5 -3.5t-33.5 31.5t-9 61q2 21 4 35.5t4 28.5q-35 -2 -53.5 -3t-26.5 -3t-10 -7.5t-5 -16.5q-5 -22 -8.5 -38t-8 -29t-11 -25.5t-17.5 -29.5q-9 -13 -21 -18.5t-24.5 -4t-23 10t-15.5 23.5
q-18 51 -14 104q2 18 -1 21t-22 3q-17 0 -32.5 2t-17.5 19q-1 9 3 14t13 9t23.5 8t34.5 10q6 2 8 3t5 10t7.5 31t14.5 66q-9 0 -22 0.5t-26.5 2t-25.5 3.5t-21 5q-18 7 -19 23.5t15 26.5q7 4 14 7t18.5 6t29.5 6t46 7q8 2 13 5.5t8 12.5q5 15 13 39.5t17.5 50t19.5 47.5
t18 32q10 12 24.5 15.5t27 -4t20 -28t3.5 -56.5q-4 -35 -6.5 -54t-3.5 -28t1 -10.5t8 -1.5q20 1 40.5 3.5t40.5 1.5q6 0 7.5 3.5t3.5 7.5q3 11 8 30t12 39.5t14.5 39.5t14.5 30q11 18 30 18.5t33 -16.5q8 -10 11.5 -23.5t4 -28.5t-0.5 -31t-3 -30q-1 -8 -1.5 -15.5
t-2.5 -17.5zM367 381q-41 0 -82 -3q-4 0 -5.5 -1.5t-3.5 -9.5t-4.5 -25t-7.5 -49l52.5 4.5t25 2.5t8.5 3.5t2 6.5q4 17 7.5 34.5t7.5 36.5z" />
    <glyph glyph-name="at" unicode="@" horiz-adv-x="682" 
d="M331 206q-14 -11 -25.5 -21.5t-26.5 -18.5q-23 -11 -45 -8t-38.5 17t-26.5 37t-9.5 50t13 56.5t40.5 56.5q19 19 41 32t44 17t43.5 -2.5t39.5 -26.5q5 0 11 9t20 17q12 8 25 7t22 -8.5t12.5 -19.5t-2.5 -26q-1 -3 -8.5 -16t-16.5 -31.5t-17.5 -39.5t-10.5 -40
q6 -2 23 8.5t35.5 33t34 57t19.5 80.5q2 27 -7 48.5t-26 35.5t-40 21.5t-50 7.5q-66 0 -117.5 -28.5t-86.5 -72t-53 -95.5t-18 -99q0 -33 14.5 -61.5t40.5 -49t62.5 -32t81.5 -11.5q47 0 86.5 18.5t70 42.5t51 47t28.5 32q15 17 34 10t29 -28q14 -30 14.5 -61t-22.5 -54
q-6 -6 -8.5 -10t-5.5 -9t-7.5 -11.5t-15.5 -17.5q-49 -46 -118.5 -71t-142.5 -25q-88 0 -149.5 24t-99.5 64t-55.5 93t-17.5 111q0 42 10 89t30 92t51.5 86.5t74 72.5t97.5 49.5t122 18.5q64 0 114.5 -19t82.5 -53t43 -82t-5 -106q-16 -61 -45.5 -105t-62.5 -72.5t-65 -41.5
t-52 -11q-37 5 -56 34q-2 2 -3 4.5t-5 4.5zM283 273q9 0 21.5 9.5t21 20.5t10 20.5t-10.5 9.5q-7 0 -18 -9.5t-19.5 -20.5t-11 -20.5t6.5 -9.5z" />
    <glyph glyph-name="underscore" unicode="_" horiz-adv-x="455" 
d="M111 1q-19 -1 -41.5 -0.5t-41 4.5t-31 13t-12.5 25q1 19 16.5 33t41.5 16q38 4 87.5 7.5t99 4t92 -4t66.5 -17.5q11 -6 19 -15.5t10.5 -20t-2 -19.5t-19.5 -13q-18 -5 -45 -8.5t-57.5 -5t-61.5 -1.5t-56.5 0.5t-43 1t-21.5 0.5z" />
    <glyph glyph-name="asciitilde" unicode="~" horiz-adv-x="471" 
d="M169 459q26 -1 48 -6.5t43 -14t42.5 -18.5t45.5 -21q19 -8 35 -8q14 0 23 4t17 4q9 0 19 -10q12 -14 4 -34q-12 -34 -39 -52t-62 -18q-3 0 -6.5 0.5t-6.5 0.5q-26 3 -51 11t-47 16.5t-41 16t-33 9.5q-5 1 -10 1h-10q-20 0 -31.5 -6t-19.5 -13t-16 -13t-22 -7
q-15 0 -26 7.5t-15.5 19.5t-1.5 27.5t15 30.5q58 70 146 73z" />
    <glyph glyph-name="semicolon" unicode=";" horiz-adv-x="287" 
d="M115 61q-29 11 -41.5 38t-8 53.5t26.5 45.5t64 14q34 -4 47.5 -26t13 -52t-13 -63t-32 -59t-43.5 -39t-47 -4q-20 8 -21 25.5t16 25.5q13 5 23 17t16 24zM223 421q0 -35 -24.5 -59.5t-59.5 -25.5q-18 0 -33.5 6.5t-27 18.5t-18 27.5t-6.5 33.5q0 35 25 59.5t60 24.5
q17 0 32.5 -6.5t27 -18t18 -27t6.5 -33.5z" />
    <glyph glyph-name="colon" unicode=":" horiz-adv-x="287" 
d="M224 113q0 -35 -24.5 -60t-59.5 -25q-18 0 -33.5 6.5t-27 18t-18.5 27t-7 33.5q1 35 25.5 60t59.5 25q35 -1 60 -25.5t25 -59.5zM224 421q0 -35 -24.5 -59.5t-59.5 -25.5q-18 0 -33.5 6.5t-27 18.5t-18.5 27.5t-7 33.5q1 35 25.5 59.5t59.5 24.5t60 -25t25 -60z" />
    <glyph glyph-name="percent" unicode="%" horiz-adv-x="549" 
d="M23 110q23 44 63.5 104t88.5 124t98 127t91.5 114t70 84t32.5 36q11 10 27 10q13 0 23.5 -9.5t13 -30.5t-7 -54.5t-36.5 -81.5q-7 -13 -27.5 -42.5t-50 -69.5t-65 -88t-73 -98.5t-74.5 -100t-68 -92.5q-15 -21 -26 -33.5t-17 -21t-8 -14.5t0 -14q4 -16 -7.5 -25t-27.5 -9
t-30.5 10t-19.5 33q-2 10 -1 27.5t4.5 37t10.5 40t16 37.5zM196 432q-25 -11 -47 -11q-32 0 -60 22q-34 27 -39 64t9.5 70.5t42.5 57.5t59 24q12 0 25 -5q6 -3 12 -3q38 -1 59 -27.5t21.5 -62.5t-19.5 -72.5t-63 -56.5zM164 568q-14 -11 -19 -24.5t-7 -28.5q-1 -16 13 -16
q13 0 19 15q6 14 6 27t-12 27zM431 65q-12 -3 -25 -3q-23 0 -42.5 9.5t-33.5 27.5q-25 33 -23 70t19.5 68t45.5 51.5t54 20.5q4 0 7 -0.5t7 -1.5q2 -1 4 -1.5t4 -1.5q22 -16 42.5 -33.5t28.5 -46.5q7 -27 1 -53.5t-19.5 -48.5t-32 -37t-37.5 -20zM422 152q8 0 13 9t6 20.5
t-1.5 20.5t-9.5 9t-12 -9t-7 -20.5t0.5 -20.5t10.5 -9z" />
    <glyph glyph-name="less" unicode="&#x3c;" 
d="M291 480q-38 -23 -72 -51t-70 -54q-6 -5 -5 -8.5t4 -7.5q28 -39 48.5 -61.5t34.5 -37t23 -26t13 -29.5q5 -21 0.5 -38.5t-15 -30t-26 -19.5t-32.5 -7q-19 0 -37.5 9.5t-32.5 29.5q-34 46 -68 101t-52 109q-13 37 3.5 66.5t47.5 47.5q72 42 146 79q17 8 31 11.5t26 3.5
q23 0 37 -10t18.5 -23.5t-1 -28.5t-21.5 -25z" />
    <glyph glyph-name="greater" unicode="&#x3e;" 
d="M29 284q5 9 19 28t28.5 38.5t26 35t12.5 18.5q1 5 -3.5 8.5t-13.5 10t-23 19t-32 34.5q-14 16 -21 32q-8 22 4 39.5t34 17.5q9 0 16 -3q6 -2 23 -10.5t39 -21t46.5 -28t45 -32t34 -31.5t13.5 -28q0 -17 -6 -35.5t-20 -39.5q-7 -11 -17 -29.5t-23 -40t-28.5 -44t-33.5 -40
t-38 -29t-42 -11.5q-29 0 -46 24q-13 18 -13.5 50t19.5 68z" />
    <glyph glyph-name="braceleft" unicode="{" horiz-adv-x="306" 
d="M311 5h3q13 0 21.5 -6t11 -14.5t-2.5 -18.5t-19 -19q-19 -14 -48 -20t-57 -6q-7 0 -13.5 0.5t-12.5 1.5q-61 7 -95.5 40t-49 80t-11 102.5t18.5 107.5q3 11 1 20.5t-6.5 17.5t-9.5 14.5t-7 10.5q-11 17 -1.5 33t27.5 24q8 3 20 5.5t23 7.5t18 14t5 25q-2 15 -8 29.5
t-11 28.5q-13 34 -12 67.5t14.5 63.5t37.5 55t57 42q16 8 29.5 11.5t24.5 3.5q21 0 34.5 -8.5t18.5 -20t0.5 -21.5t-19.5 -13q-14 -2 -22.5 -9t-16.5 -15q-22 -25 -29.5 -46.5t-6 -42t8.5 -39.5t14 -38.5t10.5 -40.5t-1.5 -44q-6 -28 -32 -51t-54 -35q13 -18 15 -35.5
t-2 -36.5q0 -4 -1 -6q-6 -19 -8 -43.5t1 -49t9.5 -48.5t16.5 -42q14 -25 34 -32.5t39 -7.5q14 0 25.5 2t17.5 2z" />
    <glyph glyph-name="braceright" unicode="}" horiz-adv-x="268" 
d="M142 720q30 0 54 -10.5t44 -33.5q31 -38 34.5 -69.5t-7.5 -58t-30 -49.5t-33.5 -44.5t-17 -43.5t18.5 -47q19 -22 12.5 -44t-32.5 -36q-14 -8 -16.5 -13.5t5.5 -18.5q17 -28 30.5 -57.5t20.5 -59t4.5 -59t-17.5 -58.5q-27 -54 -94 -78q-21 -7 -44 -12.5t-43 -5.5
q-10 0 -18 1t-16 5q-20 9 -20.5 25t18.5 27q4 2 20 8.5t32.5 18t28.5 28.5t9 41q-4 34 -8.5 55t-8.5 39.5t-6.5 39.5t-2.5 55q0 20 4 32t8.5 19.5t7 12.5t-0.5 10q-15 24 -17 48t6.5 48.5t24 48t34.5 45.5q8 9 16.5 19.5t15.5 22.5t12 25t5 26q0 26 -19 43t-39 21
q-12 2 -14.5 12t9.5 17q8 4 15 4.5t15 0.5z" />
    <glyph glyph-name="bracketright" unicode="]" horiz-adv-x="356" 
d="M257 563q2 -35 4 -82.5t4.5 -99t4 -104t2.5 -98.5t1 -81.5t-1 -53.5q-3 -39 -12.5 -62.5t-27 -36t-44 -16.5t-62.5 -4q-11 0 -22 0.5t-23 0.5q-15 0 -29 4t-27 11q-13 6 -18.5 18t-4 23.5t10 20.5t24.5 10q13 0 25 3.5t25 5.5q9 3 9 10q-2 62 3 120t12.5 126.5t16 153.5
t14.5 201q0 11 -1.5 12.5t-14.5 3.5q-10 2 -20.5 4t-19 6.5t-13.5 10.5t-5 15q0 23 29 31q3 1 14.5 2.5t25 3t26 3t19.5 1.5q30 0 44.5 -11.5t20.5 -33t7 -51.5t3 -67z" />
    <glyph glyph-name="bracketleft" unicode="[" horiz-adv-x="360" 
d="M229 57q45 0 63 -20t6.5 -44.5t-53.5 -45.5t-119 -22h-2q-17 0 -33 5.5t-29 16t-20.5 26t-6.5 35.5q2 79 5 161t10 163.5t19.5 161.5t34.5 155q11 38 38 53.5t65 15.5q25 0 44 -6q16 -4 25 -11.5t11.5 -15.5t-1 -16.5t-12.5 -15.5q-15 -11 -25 -13.5t-15.5 -3.5t-8 -5
t-3 -19t0 -45t1 -82.5t0 -132t-3.5 -193.5q-1 -36 -2.5 -56.5t-2 -30.5t2.5 -12.5t11 -2.5z" />
    <glyph glyph-name="slash" unicode="/" horiz-adv-x="313" 
d="M385 686q1 -10 -11.5 -44t-35 -83t-51.5 -108.5t-60 -121t-61.5 -120.5t-55.5 -106.5t-42 -80t-22 -40.5q-11 -20 -35 -20q-27 2 -34.5 26t-2 60.5t21 80.5t33.5 87.5t36.5 81t29.5 59.5q10 18 25 46.5t34 62.5t39.5 70.5t41 69t39 59t32.5 40.5q7 7 14 12.5t16 7.5
q3 1 8 1q15 0 26.5 -10.5t14.5 -29.5z" />
    <glyph glyph-name="parenleft" unicode="(" horiz-adv-x="360" 
d="M208 695q15 14 28.5 19.5t25.5 5.5q24 0 38 -18t10 -40q-3 -18 -14 -37q-10 -19 -28.5 -47.5t-36.5 -70.5t-31.5 -98t-13.5 -129q0 -69 5.5 -122t12.5 -89t13.5 -55.5t9.5 -21.5q17 -15 15.5 -35t-21.5 -31q-17 -10 -39 -10q-29 0 -57.5 16t-45.5 39q-31 42 -46.5 100.5
t-16.5 125t12 137.5t38 137.5t61 124.5t81 99z" />
    <glyph glyph-name="parenright" unicode=")" horiz-adv-x="319" 
d="M153 697q48 -46 72.5 -118t30 -153.5t-5.5 -165.5t-33.5 -155t-55 -120.5t-69.5 -62.5q-11 -4 -23 -4q-15 0 -28 5.5t-22.5 15.5t-15 23.5t-4.5 28.5t10 38.5t22 56t27.5 74t26.5 92.5t18.5 111.5t3.5 130.5q-3 60 -14 97t-20.5 60.5t-11.5 38t13 27.5q11 10 24 10
q14 0 28 -9t27 -21z" />
    <glyph glyph-name="dollar" unicode="$" horiz-adv-x="475" 
d="M123 153q2 2 3 4t5.5 17t14 47.5t28.5 95.5q4 14 -7 25q-45 46 -65 89t-20.5 81.5t15 70.5t42 55t61.5 36t72 13q7 0 14 -0.5t15 -1.5q6 0 8.5 1.5t4.5 7.5q3 7 7.5 17t9.5 21t10 20.5t10 15.5q12 12 25 12q8 0 12 -2q21 -9 22 -27.5t-4 -38.5q-7 -33 -11.5 -47.5
t-5 -19.5t2.5 -6.5t10 -9.5q11 -12 17 -27.5t6.5 -31t-4 -29t-15.5 -22.5q-10 -9 -19 -9q-8 0 -14.5 6t-14.5 14q-2 0 -3.5 -2.5t-5.5 -15.5t-13.5 -41t-28.5 -80q-4 -12 6 -22q26 -24 47.5 -50t35.5 -54.5t19 -59t-1 -63.5q-7 -34 -24.5 -60.5t-43 -45t-56.5 -28.5t-64 -10
q-15 0 -32 3q-5 1 -10.5 -5t-11 -15.5t-10.5 -20t-10 -19.5q-6 -11 -17 -17t-22 -6q-12 0 -21 6.5t-11 18.5q-1 8 0 20t3.5 24.5t5 24t4.5 19.5q2 11 -7 22q-62 65 -74 151q-6 39 6.5 58t28.5 19q9 0 16.5 -5.5t11.5 -17.5q11 -33 22 -62.5t25 -42.5zM223 128q18 4 33 14.5
t21.5 26t3 35t-21.5 40.5q-9 -29 -18 -57.5t-18 -58.5zM255 543q-13 -3 -23 -12t-15 -19.5t-3 -22.5t12 -21q7 19 14 37t15 38z" />
    <glyph glyph-name="ampersand" unicode="&#x26;" horiz-adv-x="593" 
d="M361 315q18 22 31.5 44.5t21.5 48.5q2 7 1.5 12.5t-5.5 11.5q-11 14 0 26.5t30 12.5t33 -13q12 -11 19 -27t9 -35t0 -38.5t-7 -37.5q-10 -36 -20.5 -57t-18 -33t-10.5 -18t3 -12q26 -29 51.5 -60t57.5 -57q15 -12 18 -26.5t-4 -27t-23 -21t-39 -8.5q-24 0 -47.5 8t-45 21
t-41 28.5t-36.5 30.5q-3 3 -8 3q-10 0 -26 -11.5t-38.5 -25t-52 -25t-67.5 -11.5h-9.5t-9.5 1q-39 3 -67.5 22t-44.5 47.5t-18 65t11.5 75.5t45 77t81.5 71q12 8 13.5 11.5t-2.5 17.5q-8 29 -13 55.5t-5 52.5t6 51.5t20 51.5q17 34 44 49t56 15q22 0 43.5 -7.5t40 -21
t31.5 -32.5t19 -41q8 -32 0.5 -60.5t-22.5 -55.5q-13 -22 -24 -34t-18 -19.5t-9 -13t3 -14.5q10 -17 19.5 -33.5t22.5 -33.5zM273 478q11 11 19 25.5t10.5 28.5t-1.5 26t-18 18q-4 3 -11 3q-6 0 -9 -5q-6 -9 -10 -17t-4 -18.5t5.5 -25t18.5 -35.5zM197 264q-12 -12 -26 -32
t-19 -34q-4 -11 4 -11q17 0 34.5 3t33.5 10l6 2t3 6q-10 13 -18.5 27.5t-17.5 28.5z" />
    <glyph glyph-name="asciicircum" unicode="^" horiz-adv-x="446" 
d="M231 621q-27 -32 -50 -60t-42.5 -49t-36.5 -33t-32 -12q-12 0 -22 7q-15 9 -18 23.5t1 30.5t13 32.5t18 30.5q12 18 32 49.5t44.5 62t51.5 52.5t53 22q16 0 26 -3t18 -9t14.5 -14.5t15.5 -19.5q15 -19 33.5 -50.5t33.5 -65.5t24.5 -64.5t7.5 -47.5q-2 -26 -19.5 -42
t-40.5 -16q-15 0 -30.5 8.5t-28.5 26.5q-6 9 -16.5 31t-20.5 46t-18.5 43t-10.5 21z" />
    <glyph glyph-name="asterisk" unicode="*" horiz-adv-x="386" 
d="M308 630q26 -27 39 -41t20 -28q6 -14 4.5 -27.5t-8.5 -24t-18 -17t-25 -6.5q-16 0 -32 10q-12 8 -21.5 18.5t-14.5 12.5q-7 -21 -19 -38t-38 -17q-18 0 -32.5 11t-19.5 29q-1 3 -1 6t-2 7q-12 -10 -31 -19t-35 -9t-28.5 7t-19.5 19t-7.5 27t8.5 30q13 22 45.5 38t80.5 40
q-4 10 -15.5 25.5t-21 32t-12 32t10.5 25.5q8 7 18 7q16 0 35 -16.5t42 -36.5q5 4 11.5 19.5t19.5 26.5q12 12 26 12q13 0 22.5 -9.5t8.5 -26.5v-13t-1 -14q34 11 50.5 16.5t30.5 5.5h4q20 -2 26 -14t-2 -25q-12 -18 -35 -35t-43 -28q-5 -2 -9.5 -5z" />
    <glyph glyph-name="grave" unicode="`" horiz-adv-x="197" 
d="M119 594q-18 11 -44.5 30t-43.5 43q-11 17 -13.5 30.5t1.5 23t12.5 14.5t18.5 5q15 0 32.5 -10.5t33.5 -26t29 -32.5t19 -29t5.5 -21.5t-5.5 -16.5t-13 -10.5t-16 -3.5q-11 0 -16 4z" />
    <glyph glyph-name="backslash" unicode="\" horiz-adv-x="354" 
d="M238 -63q-8 6 -23 39t-34 83.5t-40.5 113t-43 128t-41.5 128.5t-36 115t-27 87t-13 44q-3 11 -1 21t11 18q11 10 25 10q20 0 40 -20t39 -51.5t37 -70.5t33.5 -78t27 -73t18.5 -56q9 -29 25.5 -83t32.5 -113.5t27.5 -114t11.5 -84.5q0 -20 -7.5 -37t-31.5 -17
q-14 0 -30 11z" />
    </font>
</defs>
</svg>
